HIERARCHY
ROOT Hips
{
	OFFSET 0.000000 0.000000 0.000000
	CHANNELS 6 Xposition Yposition Zposition Xrotation Yrotation Zrotation
	JOINT LeftUpLeg_virtual
	{
		OFFSET 0.000000 0.000000 0.000000
		CHANNELS 3 Xrotation Yrotation Zrotation
		JOINT LeftUpLeg
		{
			OFFSET 13.026900 -6.336304 -1.092800
			CHANNELS 3 Xrotation Yrotation Zrotation
			JOINT LeftLeg
			{
				OFFSET 0.524474 -46.096886 9.782700
				CHANNELS 3 Xrotation Yrotation Zrotation
				JOINT LeftFoot
				{
					OFFSET -0.524474 -53.427422 -12.948200
					CHANNELS 3 Xrotation Yrotation Zrotation
					JOINT LeftToeBase
					{
						OFFSET 0.192200 -14.009700 16.364100
						CHANNELS 3 Xrotation Yrotation Zrotation
						JOINT LeftToe_End
						{
							OFFSET -1.784700 -0.561700 9.474800
							CHANNELS 3 Xrotation Yrotation Zrotation
							End Site
							{
								OFFSET 0 0 0
							}
						}
					}
				}
			}
		}
	}
	JOINT RightUpLeg_virtual
	{
		OFFSET 0.000000 0.000000 0.000000
		CHANNELS 3 Xrotation Yrotation Zrotation
		JOINT RightUpLeg
		{
			OFFSET -12.883000 -6.336304 -1.092800
			CHANNELS 3 Xrotation Yrotation Zrotation
			JOINT RightLeg
			{
				OFFSET -0.524587 -46.096825 9.782800
				CHANNELS 3 Xrotation Yrotation Zrotation
				JOINT RightFoot
				{
					OFFSET 0.524587 -53.427383 -12.948300
					CHANNELS 3 Xrotation Yrotation Zrotation
					JOINT RightToeBase
					{
						OFFSET -0.192200 -14.009700 16.364100
						CHANNELS 3 Xrotation Yrotation Zrotation
						JOINT RightToe_End
						{
							OFFSET 1.784700 -0.561700 9.474800
							CHANNELS 3 Xrotation Yrotation Zrotation
							End Site
							{
								OFFSET 0 0 0
							}
						}
					}
				}
			}
		}
	}
	JOINT Spine_virtual
	{
		OFFSET 0.000000 0.000000 0.000000
		CHANNELS 3 Xrotation Yrotation Zrotation
		JOINT Spine
		{
			OFFSET 0.072000 7.257294 -0.789700
			CHANNELS 3 Xrotation Yrotation Zrotation
			JOINT Spine1
			{
				OFFSET 0.000000 12.508769 -0.658067
				CHANNELS 3 Xrotation Yrotation Zrotation
				JOINT Spine1_split
				{
					OFFSET 0.000000 12.508769 -0.658067
					CHANNELS 3 Xrotation Yrotation Zrotation
					JOINT Spine2
					{
						OFFSET 0.000000 12.508769 -0.658067
						CHANNELS 3 Xrotation Yrotation Zrotation
						JOINT Neck_virtual
						{
							OFFSET 0.000000 0.000000 0.000000
							CHANNELS 3 Xrotation Yrotation Zrotation
							JOINT Neck
							{
								OFFSET 0.000000 14.033295 7.520400
								CHANNELS 3 Xrotation Yrotation Zrotation
								JOINT Head
								{
									OFFSET 0.000000 8.198502 5.703100
									CHANNELS 3 Xrotation Yrotation Zrotation
									JOINT HeadTop_End
									{
										OFFSET 0.000000 17.760803 13.332701
										CHANNELS 3 Xrotation Yrotation Zrotation
										End Site
										{
											OFFSET 0 0 0
										}
									}
								}
							}
						}
						JOINT LeftShoulder_virtual
						{
							OFFSET 0.000000 0.000000 0.000000
							CHANNELS 3 Xrotation Yrotation Zrotation
							JOINT LeftShoulder
							{
								OFFSET 6.292450 5.785301 -0.669000
								CHANNELS 3 Xrotation Yrotation Zrotation
								JOINT LeftShoulder_split
								{
									OFFSET 6.292450 5.785301 -0.669000
									CHANNELS 3 Xrotation Yrotation Zrotation
									JOINT LeftArm
									{
										OFFSET 13.907140 -6.093903 1.965100
										CHANNELS 3 Xrotation Yrotation Zrotation
										JOINT LeftForeArm
										{
											OFFSET 34.140198 0.000000 0.000000
											CHANNELS 3 Xrotation Yrotation Zrotation
											JOINT LeftHand
											{
												OFFSET 40.960209 0.000000 0.000000
												CHANNELS 3 Xrotation Yrotation Zrotation
												End Site
												{
													OFFSET 0 0 0
												}
											}
										}
									}
								}
							}
						}
						JOINT RightShoulder_virtual
						{
							OFFSET 0.000000 0.000000 0.000000
							CHANNELS 3 Xrotation Yrotation Zrotation
							JOINT RightShoulder
							{
								OFFSET -6.292450 5.785301 -0.669000
								CHANNELS 3 Xrotation Yrotation Zrotation
								JOINT RightShoulder_split
								{
									OFFSET -6.292450 5.785301 -0.669000
									CHANNELS 3 Xrotation Yrotation Zrotation
									JOINT RightArm
									{
										OFFSET -13.907140 -6.093903 1.965100
										CHANNELS 3 Xrotation Yrotation Zrotation
										JOINT RightForeArm
										{
											OFFSET -34.140198 0.000000 0.000000
											CHANNELS 3 Xrotation Yrotation Zrotation
											JOINT RightHand
											{
												OFFSET -40.960209 0.000000 0.000000
												CHANNELS 3 Xrotation Yrotation Zrotation
												End Site
												{
													OFFSET 0 0 0
												}
											}
										}
									}
								}
							}
						}
					}
				}
			}
		}
	}
}
MOTION
Frames: 4
Frame Time: 0.03333333
2.558367 274.302948 -23.064091 0.000000 0.000000 0.000000 3.183327 -12.330759 2.197397 -74.323455 18.200887 23.606549 84.407225 -1.088082 5.341619 -10.509746 4.407583 -13.431802 0.633712 -2.396511 6.147113 0.000000 0.000000 0.000000 6.374057 -16.167794 1.541015 -93.926856 9.681849 -8.678197 104.534495 -2.446304 -0.236506 3.760922 -12.612672 26.131932 0.940643 3.822935 4.358819 0.000000 0.000000 0.000000 7.325802 -17.432834 1.326602 5.498354 -1.437235 1.119898 10.773755 -1.349694 -0.400466 1.108291 -1.286443 2.034237 0.000000 0.000000 0.000000 13.175733 -1.379519 -0.173710 -22.002778 0.747261 -1.759434 0.731254 -4.516638 1.655601 0.000000 0.000000 0.000000 12.837753 -1.427955 -0.858175 1.003665 -14.084693 27.614011 0.561130 8.810328 -7.743770 -59.213840 -21.450626 -11.482464 29.882808 -70.806911 54.057522 0.000000 0.000000 0.000000 12.565578 -0.882903 -0.449737 2.720041 9.603780 -7.219027 8.190636 9.287204 0.586261 -75.523341 36.087106 23.165423 -13.367364 76.326667 -26.932763 0.000000 0.000000 0.000000 
3.010943 275.135071 -24.023159 0.000000 0.000000 0.000000 1.494402 -13.291214 2.720462 -78.789306 14.103353 22.361490 85.468657 -2.380391 2.511724 -10.538067 6.569932 -12.094846 2.502235 -3.136044 5.718832 0.000000 0.000000 0.000000 5.026732 -16.277621 2.372780 -97.018978 6.500334 -10.872615 99.222848 -0.661055 -0.907857 6.557396 -10.861602 26.676275 -1.114937 3.065454 2.440592 0.000000 0.000000 0.000000 6.246997 -18.136611 1.331569 6.315227 -1.422666 1.161502 13.885908 -0.995489 -0.462675 1.352595 -0.983728 2.181533 0.000000 0.000000 0.000000 16.216358 -0.882828 -0.377364 -23.575602 1.999601 -1.572193 3.280748 -5.434262 3.479104 0.000000 0.000000 0.000000 15.793880 -1.006158 -1.227715 2.544189 -16.766972 30.369200 -0.011933 5.310526 -6.857675 -59.235301 -17.264131 -9.138505 16.042204 -66.045723 45.597902 0.000000 0.000000 0.000000 15.571335 -0.351437 -0.657558 3.483036 10.347389 -9.169782 9.338104 9.501252 -0.747146 -83.834165 36.800571 26.862091 -32.154113 76.665704 -9.870195 0.000000 0.000000 0.000000 
3.073945 275.927551 -23.954578 0.000000 0.000000 0.000000 0.174641 -13.042080 3.316886 -80.859563 10.112022 19.892137 79.686717 -4.046067 0.982115 -9.461094 8.068201 -10.239209 3.810640 -3.702333 4.702668 0.000000 0.000000 0.000000 4.118248 -15.602956 3.235192 -97.147263 2.241056 -12.736177 88.747155 0.726258 -1.365698 9.452542 -7.897595 25.367230 -3.166707 2.879125 1.055429 0.000000 0.000000 0.000000 5.235644 -18.115620 1.354881 6.440506 -1.057755 1.363850 16.796374 -0.534045 -0.616178 1.410477 -1.293329 2.169988 0.000000 0.000000 0.000000 19.033657 -0.237807 -0.647128 -24.001725 3.194880 -1.658374 6.630896 -6.488285 5.401293 0.000000 0.000000 0.000000 18.638703 -0.557883 -1.516255 3.838084 -18.496494 32.153406 -1.183542 1.560699 -5.212258 -62.712065 -15.099559 -7.752546 6.460106 -60.068556 41.044615 0.000000 0.000000 0.000000 18.272225 0.247307 -0.832559 4.613859 11.815554 -11.563513 10.366756 9.687589 -1.950861 -89.946789 38.348135 27.674140 -39.763090 71.658909 -3.522695 0.000000 0.000000 0.000000 
2.703844 276.240967 -23.071873 0.000000 0.000000 0.000000 -1.048905 -11.663946 3.844920 -80.664479 7.199489 16.834533 68.021943 -5.991263 0.364685 -7.786223 8.921610 -7.847043 3.834961 -4.107987 3.273552 0.000000 0.000000 0.000000 2.980353 -15.301466 3.882210 -95.193064 -2.582151 -14.150973 74.127906 1.343124 -1.235687 12.400747 -4.944422 21.836685 -5.052118 3.176627 0.548733 0.000000 0.000000 0.000000 4.140001 -17.587986 1.449690 6.188681 -0.568491 1.640091 19.273964 -0.088619 -0.782668 0.965234 -1.165955 1.686694 0.000000 0.000000 0.000000 21.292299 0.416338 -0.902953 -23.189638 4.391628 -2.077444 10.326508 -7.489935 7.123508 0.000000 0.000000 0.000000 21.099556 -0.127935 -1.685802 4.639499 -18.967061 33.132503 -2.113413 -1.773889 -3.246340 -67.944659 -15.096897 -6.456044 -1.641543 -52.888764 37.516460 0.000000 0.000000 0.000000 20.399641 0.738717 -0.908625 6.219382 13.468565 -14.776696 10.723608 9.267624 -2.677982 -91.573985 40.564285 24.417424 -39.337552 63.214569 -4.847582 0.000000 0.000000 0.000000 
